  0
SECTION
  2
HEADER
  9
$MEASUREMENT
  70
  1
  9
$INSUNITS
  70
  4
  0
ENDSEC
  0
SECTION
  2
TABLES
  0
TABLE
  2
LTYPE
 70
     1
  0
LTYPE
  2
CONTINUOUS
 70
    64
  3
Ausgezogene Linie
 72
    65
 73
     0
 40
0.0
  0
ENDTAB
  0
TABLE
  2
LAYER
 70
     3
  0
LAYER
  2
Contour
 70
    64
 62
     7
  6
CONTINUOUS
  0
LAYER
  2
Engraving
 70
    64
 62
     7
  6
CONTINUOUS
  0
LAYER
  2
Reference_points
 70
    64
 62
     1
  6
CONTINUOUS
  0
ENDTAB
  0
TABLE
  2
STYLE
 70
     1
  0
STYLE
  2
TXT
 70
    64
 40
0.0
 41
1.0
 50
0.0
 71
     0
 42
3.500000
  3
TXT
  0
ENDTAB
  0
ENDSEC
  0
SECTION
  2
BLOCKS
  0
ENDSEC
  0
SECTION
  2
ENTITIES
  0
LINE
  8
Contour
 62
   7
 39
0.100
  6
CONTINUOUS
 10
100.00000
 20
150.00000
 30
 0
 11
0.00000
 21
150.00000
  0
LINE
  8
Contour
 62
   7
 39
0.100
  6
CONTINUOUS
 10
0.00000
 20
150.00000
 30
 0
 11
0.00000
 21
150.00000
  0
LINE
  8
Contour
 62
   7
 39
0.100
  6
CONTINUOUS
 10
0.00000
 20
150.00000
 30
 0
 11
0.00000
 21
0.00000
  0
LINE
  8
Contour
 62
   7
 39
0.100
  6
CONTINUOUS
 10
0.00000
 20
0.00000
 30
 0
 11
0.00000
 21
0.00000
  0
LINE
  8
Contour
 62
   7
 39
0.100
  6
CONTINUOUS
 10
0.00000
 20
0.00000
 30
 0
 11
100.00000
 21
0.00000
  0
LINE
  8
Contour
 62
   7
 39
0.100
  6
CONTINUOUS
 10
100.00000
 20
0.00000
 30
 0
 11
100.00000
 21
0.00000
  0
LINE
  8
Contour
 62
   7
 39
0.100
  6
CONTINUOUS
 10
100.00000
 20
0.00000
 30
 0
 11
100.00000
 21
150.00000
  0
LINE
  8
Contour
 62
   7
 39
0.100
  6
CONTINUOUS
 10
100.00000
 20
150.00000
 30
 0
 11
100.00000
 21
150.00000
  0
LINE
  8
Contour
 62
   7
 39
0.100
  6
CONTINUOUS
 10
31.86300
 20
122.30300
 30
 0
 11
31.86300
 21
35.30300
  0
ARC
  8
Contour
 62
   7
 39
0.100
  6
CONTINUOUS
 10
30.36300
 20
35.30300
 30
 0
 40
1.50000
 50
270.00000
 51
0.00000
  0
LINE
  8
Contour
 62
   7
 39
0.100
  6
CONTINUOUS
 10
30.36300
 20
33.80300
 30
 0
 11
10.36300
 21
33.80300
  0
ARC
  8
Contour
 62
   7
 39
0.100
  6
CONTINUOUS
 10
10.36300
 20
35.30300
 30
 0
 40
1.50000
 50
180.00000
 51
-90.00000
  0
LINE
  8
Contour
 62
   7
 39
0.100
  6
CONTINUOUS
 10
8.86300
 20
35.30300
 30
 0
 11
8.86300
 21
122.30300
  0
ARC
  8
Contour
 62
   7
 39
0.100
  6
CONTINUOUS
 10
10.36300
 20
122.30300
 30
 0
 40
1.50000
 50
450.00000
 51
180.00000
  0
LINE
  8
Contour
 62
   7
 39
0.100
  6
CONTINUOUS
 10
10.36300
 20
123.80300
 30
 0
 11
30.36300
 21
123.80300
  0
ARC
  8
Contour
 62
   7
 39
0.100
  6
CONTINUOUS
 10
30.36300
 20
122.30300
 30
 0
 40
1.50000
 50
360.00000
 51
90.00000
  0
LINE
  8
Contour
 62
   7
 39
0.100
  6
CONTINUOUS
 10
61.50000
 20
133.50000
 30
 0
 11
61.50000
 21
26.50000
  0
ARC
  8
Contour
 62
   7
 39
0.100
  6
CONTINUOUS
 10
60.00000
 20
26.50000
 30
 0
 40
1.50000
 50
270.00000
 51
0.00000
  0
LINE
  8
Contour
 62
   7
 39
0.100
  6
CONTINUOUS
 10
60.00000
 20
25.00000
 30
 0
 11
40.00000
 21
25.00000
  0
ARC
  8
Contour
 62
   7
 39
0.100
  6
CONTINUOUS
 10
40.00000
 20
26.50000
 30
 0
 40
1.50000
 50
180.00000
 51
-90.00000
  0
LINE
  8
Contour
 62
   7
 39
0.100
  6
CONTINUOUS
 10
38.50000
 20
26.50000
 30
 0
 11
38.50000
 21
133.50000
  0
ARC
  8
Contour
 62
   7
 39
0.100
  6
CONTINUOUS
 10
40.00000
 20
133.50000
 30
 0
 40
1.50000
 50
450.00000
 51
180.00000
  0
LINE
  8
Contour
 62
   7
 39
0.100
  6
CONTINUOUS
 10
40.00000
 20
135.00000
 30
 0
 11
60.00000
 21
135.00000
  0
ARC
  8
Contour
 62
   7
 39
0.100
  6
CONTINUOUS
 10
60.00000
 20
133.50000
 30
 0
 40
1.50000
 50
360.00000
 51
90.00000
  0
LINE
  8
Contour
 62
   7
 39
0.100
  6
CONTINUOUS
 10
56.50000
 20
124.96100
 30
 0
 11
56.50000
 21
103.58900
  0
ARC
  8
Contour
 62
   7
 39
0.100
  6
CONTINUOUS
 10
55.46100
 20
103.58900
 30
 0
 40
1.03900
 50
270.00000
 51
0.00000
  0
LINE
  8
Contour
 62
   7
 39
0.100
  6
CONTINUOUS
 10
55.46100
 20
102.55000
 30
 0
 11
44.53900
 21
102.55000
  0
ARC
  8
Contour
 62
   7
 39
0.100
  6
CONTINUOUS
 10
44.53900
 20
103.58900
 30
 0
 40
1.03900
 50
180.00000
 51
-90.00000
  0
LINE
  8
Contour
 62
   7
 39
0.100
  6
CONTINUOUS
 10
43.50000
 20
103.58900
 30
 0
 11
43.50000
 21
124.96100
  0
ARC
  8
Contour
 62
   7
 39
0.100
  6
CONTINUOUS
 10
44.53900
 20
124.96100
 30
 0
 40
1.03900
 50
450.00000
 51
180.00000
  0
LINE
  8
Contour
 62
   7
 39
0.100
  6
CONTINUOUS
 10
44.53900
 20
126.00000
 30
 0
 11
55.46100
 21
126.00000
  0
ARC
  8
Contour
 62
   7
 39
0.100
  6
CONTINUOUS
 10
55.46100
 20
124.96100
 30
 0
 40
1.03900
 50
360.00000
 51
90.00000
  0
LINE
  8
Contour
 62
   7
 39
0.100
  6
CONTINUOUS
 10
56.50000
 20
56.41100
 30
 0
 11
56.50000
 21
35.03900
  0
ARC
  8
Contour
 62
   7
 39
0.100
  6
CONTINUOUS
 10
55.46100
 20
35.03900
 30
 0
 40
1.03900
 50
270.00000
 51
0.00000
  0
LINE
  8
Contour
 62
   7
 39
0.100
  6
CONTINUOUS
 10
55.46100
 20
34.00000
 30
 0
 11
44.53900
 21
34.00000
  0
ARC
  8
Contour
 62
   7
 39
0.100
  6
CONTINUOUS
 10
44.53900
 20
35.03900
 30
 0
 40
1.03900
 50
180.00000
 51
-90.00000
  0
LINE
  8
Contour
 62
   7
 39
0.100
  6
CONTINUOUS
 10
43.50000
 20
35.03900
 30
 0
 11
43.50000
 21
56.41100
  0
ARC
  8
Contour
 62
   7
 39
0.100
  6
CONTINUOUS
 10
44.53900
 20
56.41100
 30
 0
 40
1.03900
 50
450.00000
 51
180.00000
  0
LINE
  8
Contour
 62
   7
 39
0.100
  6
CONTINUOUS
 10
44.53900
 20
57.45000
 30
 0
 11
55.46100
 21
57.45000
  0
ARC
  8
Contour
 62
   7
 39
0.100
  6
CONTINUOUS
 10
55.46100
 20
56.41100
 30
 0
 40
1.03900
 50
360.00000
 51
90.00000
  0
LINE
  8
Contour
 62
   7
 39
0.100
  6
CONTINUOUS
 10
92.00000
 20
86.46100
 30
 0
 11
92.00000
 21
55.53900
  0
ARC
  8
Contour
 62
   7
 39
0.100
  6
CONTINUOUS
 10
90.96100
 20
55.53900
 30
 0
 40
1.03900
 50
270.00000
 51
0.00000
  0
LINE
  8
Contour
 62
   7
 39
0.100
  6
CONTINUOUS
 10
90.96100
 20
54.50000
 30
 0
 11
71.03900
 21
54.50000
  0
ARC
  8
Contour
 62
   7
 39
0.100
  6
CONTINUOUS
 10
71.03900
 20
55.53900
 30
 0
 40
1.03900
 50
180.00000
 51
-90.00000
  0
LINE
  8
Contour
 62
   7
 39
0.100
  6
CONTINUOUS
 10
70.00000
 20
55.53900
 30
 0
 11
70.00000
 21
86.46100
  0
ARC
  8
Contour
 62
   7
 39
0.100
  6
CONTINUOUS
 10
71.03900
 20
86.46100
 30
 0
 40
1.03900
 50
450.00000
 51
180.00000
  0
LINE
  8
Contour
 62
   7
 39
0.100
  6
CONTINUOUS
 10
71.03900
 20
87.50000
 30
 0
 11
90.96100
 21
87.50000
  0
ARC
  8
Contour
 62
   7
 39
0.100
  6
CONTINUOUS
 10
90.96100
 20
86.46100
 30
 0
 40
1.03900
 50
360.00000
 51
90.00000
  0
ARC
  8
Contour
 62
   7
 39
0.100
  6
CONTINUOUS
 10
77.73500
 20
96.46100
 30
 0
 40
1.03900
 50
90.05515
 51
139.99676
  0
LINE
  8
Contour
 62
   7
 39
0.100
  6
CONTINUOUS
 10
76.93900
 20
97.12900
 30
 0
 11
70.29100
 21
89.20700
  0
ARC
  8
Contour
 62
   7
 39
0.100
  6
CONTINUOUS
 10
71.08700
 20
88.53900
 30
 0
 40
1.03900
 50
139.99676
 51
270.00000
  0
LINE
  8
Contour
 62
   7
 39
0.100
  6
CONTINUOUS
 10
71.08700
 20
87.50000
 30
 0
 11
90.91300
 21
87.50000
  0
ARC
  8
Contour
 62
   7
 39
0.100
  6
CONTINUOUS
 10
90.91300
 20
88.53900
 30
 0
 40
1.03900
 50
-90.00000
 51
40.00324
  0
LINE
  8
Contour
 62
   7
 39
0.100
  6
CONTINUOUS
 10
91.70900
 20
89.20700
 30
 0
 11
85.06100
 21
97.12900
  0
ARC
  8
Contour
 62
   7
 39
0.100
  6
CONTINUOUS
 10
84.26500
 20
96.46100
 30
 0
 40
1.03900
 50
40.00324
 51
89.94485
  0
LINE
  8
Contour
 62
   7
 39
0.100
  6
CONTINUOUS
 10
84.26600
 20
97.50000
 30
 0
 11
77.73400
 21
97.50000
  0
LINE
  8
Contour
 62
   7
 39
0.100
  6
CONTINUOUS
 10
-1.00000
 20
0.00000
 30
 0
 11
1.00000
 21
0.00000
  0
LINE
  8
Contour
 62
   7
 39
0.100
  6
CONTINUOUS
 10
0.00000
 20
-1.00000
 30
 0
 11
0.00000
 21
1.00000
  0
LINE
  8
Contour
 62
   7
 39
0.100
  6
CONTINUOUS
 10
19.36300
 20
78.80300
 30
 0
 11
21.36300
 21
78.80300
  0
LINE
  8
Contour
 62
   7
 39
0.100
  6
CONTINUOUS
 10
20.36300
 20
77.80300
 30
 0
 11
20.36300
 21
79.80300
  0
LINE
  8
Contour
 62
   7
 39
0.100
  6
CONTINUOUS
 10
49.00000
 20
80.00000
 30
 0
 11
51.00000
 21
80.00000
  0
LINE
  8
Contour
 62
   7
 39
0.100
  6
CONTINUOUS
 10
50.00000
 20
79.00000
 30
 0
 11
50.00000
 21
81.00000
  0
LINE
  8
Contour
 62
   7
 39
0.100
  6
CONTINUOUS
 10
49.00000
 20
114.27500
 30
 0
 11
51.00000
 21
114.27500
  0
LINE
  8
Contour
 62
   7
 39
0.100
  6
CONTINUOUS
 10
50.00000
 20
113.27500
 30
 0
 11
50.00000
 21
115.27500
  0
LINE
  8
Contour
 62
   7
 39
0.100
  6
CONTINUOUS
 10
49.00000
 20
45.72500
 30
 0
 11
51.00000
 21
45.72500
  0
LINE
  8
Contour
 62
   7
 39
0.100
  6
CONTINUOUS
 10
50.00000
 20
44.72500
 30
 0
 11
50.00000
 21
46.72500
  0
LINE
  8
Contour
 62
   7
 39
0.100
  6
CONTINUOUS
 10
80.00000
 20
71.00000
 30
 0
 11
82.00000
 21
71.00000
  0
LINE
  8
Contour
 62
   7
 39
0.100
  6
CONTINUOUS
 10
81.00000
 20
70.00000
 30
 0
 11
81.00000
 21
72.00000
  0
LINE
  8
Contour
 62
   7
 39
0.100
  6
CONTINUOUS
 10
80.00000
 20
92.50000
 30
 0
 11
82.00000
 21
92.50000
  0
LINE
  8
Contour
 62
   7
 39
0.100
  6
CONTINUOUS
 10
81.00000
 20
91.50000
 30
 0
 11
81.00000
 21
93.50000
  0
ENDSEC
  0
EOF
